# xmcd
#
# Track frame offsets: 
#        150
#        16602
#        30465
#        43317
#        55955
#        69905
#        82008
#        97605
#        112893
#        125712
#
# Disc length: 1872 seconds
#
# Revision: 3
# Processed by: cddbd v1.5PL3 Copyright (c) Steve Scherf et al.
# Submitted via: ExactAudioCopy v0.95a4
#
DISCID=74074e0a
DTITLE=Mark Chesnutt - Too Cold At Home
DYEAR=1990
DGENRE=Country
TTITLE0=Too Cold At Home
TTITLE1=Brother Jukebox
TTITLE2=Blame It On Texas
TTITLE3=Your Love Is A Miracle
TTITLE4=Broken Promise Land
TTITLE5=Too Good A Memory
TTITLE6=Friends In Low Places
TTITLE7=Lucky Man
TTITLE8=Hey You There In The Mirror
TTITLE9=Danger At My Door
EXTD=
EXTT0=
EXTT1=
EXTT2=
EXTT3=
EXTT4=
EXTT5=
EXTT6=
EXTT7=
EXTT8=
EXTT9=
PLAYORDER=
